<mxfile host="app.diagrams.net" agent="Mozilla/5.0 (X11; Linux x86_64; rv:128.0) Gecko/20100101 Firefox/128.0" version="26.0.7">
  <diagram name="Page-1" id="jzw5WTR2NERdWGnIvId5">
    <mxGraphModel dx="774" dy="857" grid="1" gridSize="10" guides="1" tooltips="1" connect="1" arrows="1" fold="1" page="0" pageScale="1" pageWidth="850" pageHeight="1100" background="#ffffff" math="0" shadow="0">
      <root>
        <mxCell id="0" />
        <mxCell id="1" parent="0" />
        <mxCell id="QhfKAPlDiAFCTURe2MWs-65" style="edgeStyle=none;curved=1;rounded=0;orthogonalLoop=1;jettySize=auto;html=1;exitX=0.5;exitY=0;exitDx=0;exitDy=0;entryX=0.5;entryY=1;entryDx=0;entryDy=0;fontSize=12;startSize=8;endSize=8;endArrow=none;startFill=0;" edge="1" parent="1" source="QhfKAPlDiAFCTURe2MWs-58" target="QhfKAPlDiAFCTURe2MWs-62">
          <mxGeometry relative="1" as="geometry" />
        </mxCell>
        <mxCell id="QhfKAPlDiAFCTURe2MWs-73" style="edgeStyle=none;curved=1;rounded=0;orthogonalLoop=1;jettySize=auto;html=1;exitX=1;exitY=0.25;exitDx=0;exitDy=0;entryX=0;entryY=1;entryDx=0;entryDy=0;fontSize=12;startSize=8;endSize=8;endArrow=none;startFill=0;" edge="1" parent="1" source="QhfKAPlDiAFCTURe2MWs-58" target="QhfKAPlDiAFCTURe2MWs-68">
          <mxGeometry relative="1" as="geometry" />
        </mxCell>
        <mxCell id="QhfKAPlDiAFCTURe2MWs-74" style="edgeStyle=none;curved=1;rounded=0;orthogonalLoop=1;jettySize=auto;html=1;exitX=1;exitY=0.5;exitDx=0;exitDy=0;entryX=0;entryY=0.5;entryDx=0;entryDy=0;fontSize=12;startSize=8;endSize=8;endArrow=none;startFill=0;" edge="1" parent="1" source="QhfKAPlDiAFCTURe2MWs-58" target="QhfKAPlDiAFCTURe2MWs-67">
          <mxGeometry relative="1" as="geometry" />
        </mxCell>
        <mxCell id="QhfKAPlDiAFCTURe2MWs-75" style="edgeStyle=none;curved=1;rounded=0;orthogonalLoop=1;jettySize=auto;html=1;exitX=1;exitY=0.75;exitDx=0;exitDy=0;entryX=0;entryY=0;entryDx=0;entryDy=0;fontSize=12;startSize=8;endSize=8;endArrow=none;startFill=0;" edge="1" parent="1" source="QhfKAPlDiAFCTURe2MWs-58" target="QhfKAPlDiAFCTURe2MWs-69">
          <mxGeometry relative="1" as="geometry" />
        </mxCell>
        <mxCell id="QhfKAPlDiAFCTURe2MWs-58" value="Equipo" style="rounded=0;whiteSpace=wrap;html=1;fillColor=#d5e8d4;strokeColor=#82b366;" vertex="1" parent="1">
          <mxGeometry x="50" y="410" width="120" height="60" as="geometry" />
        </mxCell>
        <mxCell id="QhfKAPlDiAFCTURe2MWs-64" style="edgeStyle=none;curved=1;rounded=0;orthogonalLoop=1;jettySize=auto;html=1;exitX=0;exitY=0.5;exitDx=0;exitDy=0;entryX=1;entryY=0.5;entryDx=0;entryDy=0;fontSize=12;startSize=8;endSize=8;endArrow=none;startFill=0;" edge="1" parent="1" source="QhfKAPlDiAFCTURe2MWs-59" target="QhfKAPlDiAFCTURe2MWs-61">
          <mxGeometry relative="1" as="geometry" />
        </mxCell>
        <mxCell id="QhfKAPlDiAFCTURe2MWs-94" style="edgeStyle=none;curved=1;rounded=0;orthogonalLoop=1;jettySize=auto;html=1;exitX=0.25;exitY=0;exitDx=0;exitDy=0;entryX=1;entryY=1;entryDx=0;entryDy=0;fontSize=12;startSize=8;endSize=8;endArrow=none;startFill=0;" edge="1" parent="1" source="QhfKAPlDiAFCTURe2MWs-59" target="QhfKAPlDiAFCTURe2MWs-89">
          <mxGeometry relative="1" as="geometry" />
        </mxCell>
        <mxCell id="QhfKAPlDiAFCTURe2MWs-95" style="edgeStyle=none;curved=1;rounded=0;orthogonalLoop=1;jettySize=auto;html=1;exitX=0.5;exitY=0;exitDx=0;exitDy=0;entryX=0.5;entryY=1;entryDx=0;entryDy=0;fontSize=12;startSize=8;endSize=8;endArrow=none;startFill=0;" edge="1" parent="1" source="QhfKAPlDiAFCTURe2MWs-59" target="QhfKAPlDiAFCTURe2MWs-90">
          <mxGeometry relative="1" as="geometry" />
        </mxCell>
        <mxCell id="QhfKAPlDiAFCTURe2MWs-96" style="edgeStyle=none;curved=1;rounded=0;orthogonalLoop=1;jettySize=auto;html=1;exitX=0.75;exitY=0;exitDx=0;exitDy=0;entryX=0;entryY=1;entryDx=0;entryDy=0;fontSize=12;startSize=8;endSize=8;endArrow=none;startFill=0;" edge="1" parent="1" source="QhfKAPlDiAFCTURe2MWs-59" target="QhfKAPlDiAFCTURe2MWs-91">
          <mxGeometry relative="1" as="geometry" />
        </mxCell>
        <mxCell id="QhfKAPlDiAFCTURe2MWs-59" value="Partido" style="rounded=0;whiteSpace=wrap;html=1;fillColor=#d5e8d4;strokeColor=#82b366;" vertex="1" parent="1">
          <mxGeometry x="450" y="70" width="120" height="60" as="geometry" />
        </mxCell>
        <mxCell id="QhfKAPlDiAFCTURe2MWs-63" style="edgeStyle=none;curved=1;rounded=0;orthogonalLoop=1;jettySize=auto;html=1;exitX=1;exitY=0.5;exitDx=0;exitDy=0;entryX=0;entryY=0.5;entryDx=0;entryDy=0;fontSize=12;startSize=8;endSize=8;endArrow=none;startFill=0;" edge="1" parent="1" source="QhfKAPlDiAFCTURe2MWs-60" target="QhfKAPlDiAFCTURe2MWs-61">
          <mxGeometry relative="1" as="geometry" />
        </mxCell>
        <mxCell id="QhfKAPlDiAFCTURe2MWs-66" style="edgeStyle=none;curved=1;rounded=0;orthogonalLoop=1;jettySize=auto;html=1;exitX=0.5;exitY=1;exitDx=0;exitDy=0;entryX=0.5;entryY=0;entryDx=0;entryDy=0;fontSize=12;startSize=8;endSize=8;endArrow=none;startFill=0;" edge="1" parent="1" source="QhfKAPlDiAFCTURe2MWs-60" target="QhfKAPlDiAFCTURe2MWs-62">
          <mxGeometry relative="1" as="geometry" />
        </mxCell>
        <mxCell id="QhfKAPlDiAFCTURe2MWs-79" style="edgeStyle=none;curved=1;rounded=0;orthogonalLoop=1;jettySize=auto;html=1;exitX=0.25;exitY=0;exitDx=0;exitDy=0;entryX=1;entryY=1;entryDx=0;entryDy=0;fontSize=12;startSize=8;endSize=8;endArrow=none;startFill=0;" edge="1" parent="1" source="QhfKAPlDiAFCTURe2MWs-60" target="QhfKAPlDiAFCTURe2MWs-76">
          <mxGeometry relative="1" as="geometry" />
        </mxCell>
        <mxCell id="QhfKAPlDiAFCTURe2MWs-80" style="edgeStyle=none;curved=1;rounded=0;orthogonalLoop=1;jettySize=auto;html=1;exitX=0.5;exitY=0;exitDx=0;exitDy=0;entryX=0.5;entryY=1;entryDx=0;entryDy=0;fontSize=12;startSize=8;endSize=8;endArrow=none;startFill=0;" edge="1" parent="1" source="QhfKAPlDiAFCTURe2MWs-60" target="QhfKAPlDiAFCTURe2MWs-77">
          <mxGeometry relative="1" as="geometry" />
        </mxCell>
        <mxCell id="QhfKAPlDiAFCTURe2MWs-81" style="edgeStyle=none;curved=1;rounded=0;orthogonalLoop=1;jettySize=auto;html=1;exitX=0.75;exitY=0;exitDx=0;exitDy=0;entryX=0;entryY=1;entryDx=0;entryDy=0;fontSize=12;startSize=8;endSize=8;endArrow=none;startFill=0;" edge="1" parent="1" source="QhfKAPlDiAFCTURe2MWs-60" target="QhfKAPlDiAFCTURe2MWs-78">
          <mxGeometry relative="1" as="geometry" />
        </mxCell>
        <mxCell id="QhfKAPlDiAFCTURe2MWs-60" value="Jugador" style="rounded=0;whiteSpace=wrap;html=1;fillColor=#d5e8d4;strokeColor=#82b366;" vertex="1" parent="1">
          <mxGeometry x="50" y="70" width="120" height="60" as="geometry" />
        </mxCell>
        <mxCell id="QhfKAPlDiAFCTURe2MWs-85" style="edgeStyle=none;curved=1;rounded=0;orthogonalLoop=1;jettySize=auto;html=1;exitX=0.5;exitY=1;exitDx=0;exitDy=0;entryX=0.5;entryY=0;entryDx=0;entryDy=0;fontSize=12;startSize=8;endSize=8;endArrow=none;startFill=0;" edge="1" parent="1" source="QhfKAPlDiAFCTURe2MWs-61" target="QhfKAPlDiAFCTURe2MWs-84">
          <mxGeometry relative="1" as="geometry" />
        </mxCell>
        <mxCell id="QhfKAPlDiAFCTURe2MWs-61" value="jugar" style="rhombus;whiteSpace=wrap;html=1;fillColor=#fff2cc;strokeColor=#d6b656;" vertex="1" parent="1">
          <mxGeometry x="270" y="60" width="80" height="80" as="geometry" />
        </mxCell>
        <mxCell id="QhfKAPlDiAFCTURe2MWs-62" value="&lt;div&gt;formar&lt;/div&gt;&lt;div&gt;parte&lt;/div&gt;" style="rhombus;whiteSpace=wrap;html=1;fillColor=#fff2cc;strokeColor=#d6b656;" vertex="1" parent="1">
          <mxGeometry x="70" y="230" width="80" height="80" as="geometry" />
        </mxCell>
        <mxCell id="QhfKAPlDiAFCTURe2MWs-67" value="nombre" style="ellipse;whiteSpace=wrap;html=1;" vertex="1" parent="1">
          <mxGeometry x="210" y="420" width="80" height="40" as="geometry" />
        </mxCell>
        <mxCell id="QhfKAPlDiAFCTURe2MWs-68" value="id_equipo" style="ellipse;whiteSpace=wrap;html=1;fontStyle=4;fillColor=#dae8fc;strokeColor=#6c8ebf;" vertex="1" parent="1">
          <mxGeometry x="190" y="380" width="80" height="40" as="geometry" />
        </mxCell>
        <mxCell id="QhfKAPlDiAFCTURe2MWs-69" value="capitan" style="ellipse;whiteSpace=wrap;html=1;" vertex="1" parent="1">
          <mxGeometry x="190" y="460" width="80" height="40" as="geometry" />
        </mxCell>
        <mxCell id="QhfKAPlDiAFCTURe2MWs-76" value="id_jugador" style="ellipse;whiteSpace=wrap;html=1;fontStyle=4;fillColor=#dae8fc;strokeColor=#6c8ebf;" vertex="1" parent="1">
          <mxGeometry y="20" width="80" height="40" as="geometry" />
        </mxCell>
        <mxCell id="QhfKAPlDiAFCTURe2MWs-77" value="nombre" style="ellipse;whiteSpace=wrap;html=1;" vertex="1" parent="1">
          <mxGeometry x="70" width="80" height="40" as="geometry" />
        </mxCell>
        <mxCell id="QhfKAPlDiAFCTURe2MWs-78" value="telefono" style="ellipse;whiteSpace=wrap;html=1;" vertex="1" parent="1">
          <mxGeometry x="140" y="20" width="80" height="40" as="geometry" />
        </mxCell>
        <mxCell id="QhfKAPlDiAFCTURe2MWs-82" value="(1:1)" style="text;html=1;align=center;verticalAlign=middle;resizable=0;points=[];autosize=1;strokeColor=none;fillColor=none;fontSize=16;" vertex="1" parent="1">
          <mxGeometry x="50" y="380" width="60" height="30" as="geometry" />
        </mxCell>
        <mxCell id="QhfKAPlDiAFCTURe2MWs-83" value="(7:N)" style="text;html=1;align=center;verticalAlign=middle;resizable=0;points=[];autosize=1;strokeColor=none;fillColor=none;fontSize=16;" vertex="1" parent="1">
          <mxGeometry x="50" y="130" width="60" height="30" as="geometry" />
        </mxCell>
        <mxCell id="QhfKAPlDiAFCTURe2MWs-84" value="posicion" style="ellipse;whiteSpace=wrap;html=1;" vertex="1" parent="1">
          <mxGeometry x="270" y="160" width="80" height="40" as="geometry" />
        </mxCell>
        <mxCell id="QhfKAPlDiAFCTURe2MWs-86" value="(0:N)" style="text;html=1;align=center;verticalAlign=middle;resizable=0;points=[];autosize=1;strokeColor=none;fillColor=none;fontSize=16;" vertex="1" parent="1">
          <mxGeometry x="390" y="70" width="60" height="30" as="geometry" />
        </mxCell>
        <mxCell id="QhfKAPlDiAFCTURe2MWs-87" value="(7:N)" style="text;html=1;align=center;verticalAlign=middle;resizable=0;points=[];autosize=1;strokeColor=none;fillColor=none;fontSize=16;" vertex="1" parent="1">
          <mxGeometry x="170" y="70" width="60" height="30" as="geometry" />
        </mxCell>
        <mxCell id="QhfKAPlDiAFCTURe2MWs-89" value="id_partido" style="ellipse;whiteSpace=wrap;html=1;fontStyle=4;fillColor=#dae8fc;strokeColor=#6c8ebf;" vertex="1" parent="1">
          <mxGeometry x="400" y="20" width="80" height="40" as="geometry" />
        </mxCell>
        <mxCell id="QhfKAPlDiAFCTURe2MWs-90" value="fecha" style="ellipse;whiteSpace=wrap;html=1;" vertex="1" parent="1">
          <mxGeometry x="470" width="80" height="40" as="geometry" />
        </mxCell>
        <mxCell id="QhfKAPlDiAFCTURe2MWs-91" value="hora" style="ellipse;whiteSpace=wrap;html=1;" vertex="1" parent="1">
          <mxGeometry x="540" y="20" width="80" height="40" as="geometry" />
        </mxCell>
        <mxCell id="QhfKAPlDiAFCTURe2MWs-97" value="N:M" style="text;html=1;align=center;verticalAlign=middle;resizable=0;points=[];autosize=1;strokeColor=none;fillColor=none;fontSize=16;fontStyle=1" vertex="1" parent="1">
          <mxGeometry x="285" y="30" width="50" height="30" as="geometry" />
        </mxCell>
        <mxCell id="QhfKAPlDiAFCTURe2MWs-98" value="1:N" style="text;html=1;align=center;verticalAlign=middle;resizable=0;points=[];autosize=1;strokeColor=none;fillColor=none;fontSize=16;fontStyle=1" vertex="1" parent="1">
          <mxGeometry x="20" y="255" width="50" height="30" as="geometry" />
        </mxCell>
      </root>
    </mxGraphModel>
  </diagram>
</mxfile>
